<svg width="60" height="54" viewBox="0 0 60 54" fill="none" xmlns="http://www.w3.org/2000/svg">
<g clip-path="url(#clip0_1557_164)">
<path d="M29.9996 1.63397e-06C29.9588 0.000132379 29.9184 0.00831363 29.8808 0.0240764C29.8432 0.0398391 29.809 0.0628733 29.7803 0.0918584C29.7516 0.120844 29.7289 0.15521 29.7135 0.192986C29.6981 0.230763 29.6903 0.271208 29.6906 0.312002V3.767H28.4606L28.4536 2.827C28.4526 2.656 28.3136 2.517 28.1446 2.517H28.1426C28.1017 2.51739 28.0613 2.52586 28.0237 2.54193C27.9861 2.558 27.9521 2.58134 27.9235 2.61062C27.895 2.6399 27.8726 2.67453 27.8575 2.71253C27.8424 2.75052 27.8349 2.79112 27.8356 2.832L27.8456 4.082V5.623H27.5266C27.4437 5.623 27.3642 5.65593 27.3056 5.71453C27.247 5.77314 27.2141 5.85262 27.2141 5.9355C27.2141 6.01838 27.247 6.09787 27.3056 6.15647C27.3642 6.21508 27.4437 6.248 27.5266 6.248H27.7236L26.5516 9.997H25.9806V9.06C25.9809 9.01921 25.9731 8.97876 25.9577 8.94099C25.9423 8.90321 25.9196 8.86884 25.8909 8.83986C25.8622 8.81087 25.828 8.78784 25.7904 8.77208C25.7528 8.75631 25.7124 8.74813 25.6716 8.748C25.6308 8.74813 25.5904 8.75631 25.5528 8.77208C25.5152 8.78784 25.481 8.81087 25.4523 8.83986C25.4236 8.86884 25.4009 8.90321 25.3855 8.94099C25.3701 8.97876 25.3623 9.01921 25.3626 9.06V10.31V11.56V13.747C25.3626 13.759 25.3686 13.769 25.3696 13.781L24.1396 17.714C24.1366 17.725 24.1396 17.736 24.1376 17.747C24.1336 17.768 24.1256 17.786 24.1256 17.808V19.058V19.683V35.615H10.5156V35.009H10.8416C10.8824 35.0089 10.9228 35.0007 10.9604 34.9849C10.998 34.9692 11.0322 34.9461 11.0609 34.9171C11.0896 34.8882 11.1123 34.8538 11.1277 34.816C11.1431 34.7782 11.1509 34.7378 11.1506 34.697C11.1509 34.6562 11.1431 34.6158 11.1277 34.578C11.1123 34.5402 11.0896 34.5058 11.0609 34.4769C11.0322 34.4479 10.998 34.4248 10.9604 34.4091C10.9228 34.3933 10.8824 34.3851 10.8416 34.385H10.4376L8.78759 29.387H8.97859C9.06147 29.387 9.14096 29.3541 9.19956 29.2955C9.25817 29.2369 9.29109 29.1574 9.29109 29.0745C9.29109 28.9916 9.25817 28.9121 9.19956 28.8535C9.14096 28.7949 9.06147 28.762 8.97859 28.762H8.35859H8.04959V27.2V25.95C8.04986 25.9092 8.04207 25.8688 8.02667 25.831C8.01127 25.7932 7.98857 25.7588 7.95986 25.7299C7.93115 25.7009 7.89701 25.6778 7.85938 25.6621C7.82176 25.6463 7.78139 25.6381 7.74059 25.638C7.6998 25.6381 7.65943 25.6463 7.62181 25.6621C7.58418 25.6778 7.55003 25.7009 7.52133 25.7299C7.49262 25.7588 7.46992 25.7932 7.45452 25.831C7.43912 25.8688 7.43133 25.9092 7.43159 25.95V26.887H4.33759V25.95C4.33786 25.9092 4.33007 25.8688 4.31467 25.831C4.29927 25.7932 4.27657 25.7588 4.24786 25.7299C4.21915 25.7009 4.18501 25.6778 4.14738 25.6621C4.10976 25.6463 4.06939 25.6381 4.02859 25.638C3.9878 25.6381 3.94743 25.6463 3.90981 25.6621C3.87218 25.6778 3.83803 25.7009 3.80933 25.7299C3.78062 25.7588 3.75792 25.7932 3.74252 25.831C3.72712 25.8688 3.71933 25.9092 3.71959 25.95V27.2V28.762H3.40459H2.79659C2.71371 28.762 2.63423 28.7949 2.57562 28.8535C2.51702 28.9121 2.48409 28.9916 2.48409 29.0745C2.48409 29.1574 2.51702 29.2369 2.57562 29.2955C2.63423 29.3541 2.71371 29.387 2.79659 29.387H2.97659L1.32359 34.385H0.933594C0.892799 34.3851 0.852432 34.3933 0.814806 34.4091C0.777179 34.4248 0.743034 34.4479 0.714328 34.4769C0.685621 34.5058 0.662918 34.5402 0.64752 34.578C0.632121 34.6158 0.62433 34.6562 0.624594 34.697C0.62433 34.7378 0.632121 34.7782 0.64752 34.816C0.662918 34.8538 0.685621 34.8882 0.714328 34.9171C0.743034 34.9461 0.777179 34.9692 0.814806 34.9849C0.852432 35.0007 0.892799 35.0089 0.933594 35.009H1.23659V36.553V37.178V53.11H0.308594C0.225714 53.11 0.146228 53.1429 0.0876229 53.2015C0.0290178 53.2601 -0.00390625 53.3396 -0.00390625 53.4225C-0.00390625 53.5054 0.0290178 53.5849 0.0876229 53.6435C0.146228 53.7021 0.225714 53.735 0.308594 53.735H1.54559H10.2056H24.4326H35.5666H49.7936H58.4536H59.6906C59.7735 53.735 59.853 53.7021 59.9116 53.6435C59.9702 53.5849 60.0031 53.5054 60.0031 53.4225C60.0031 53.3396 59.9702 53.2601 59.9116 53.2015C59.853 53.1429 59.7735 53.11 59.6906 53.11H58.7626V37.175V36.55V35.006H59.0716C59.1124 35.0059 59.1528 34.9977 59.1904 34.9819C59.228 34.9662 59.2622 34.9431 59.2909 34.9141C59.3196 34.8852 59.3423 34.8508 59.3577 34.813C59.3731 34.7752 59.3809 34.7348 59.3806 34.694C59.3809 34.6532 59.3731 34.6128 59.3577 34.575C59.3423 34.5372 59.3196 34.5028 59.2909 34.4739C59.2622 34.4449 59.228 34.4218 59.1904 34.4061C59.1528 34.3903 59.1124 34.3821 59.0716 34.382H58.6816L57.0316 29.384H57.2226C57.3055 29.384 57.385 29.3511 57.4436 29.2925C57.5022 29.2339 57.5351 29.1544 57.5351 29.0715C57.5351 28.9886 57.5022 28.9091 57.4436 28.8505C57.385 28.7919 57.3055 28.759 57.2226 28.759H56.6026H56.2936V27.197V25.947C56.2939 25.9062 56.2861 25.8658 56.2707 25.828C56.2553 25.7902 56.2326 25.7558 56.2039 25.7269C56.1752 25.6979 56.141 25.6748 56.1034 25.6591C56.0658 25.6433 56.0254 25.6351 55.9846 25.635C55.9438 25.6351 55.9034 25.6433 55.8658 25.6591C55.8282 25.6748 55.794 25.6979 55.7653 25.7269C55.7366 25.7558 55.7139 25.7902 55.6985 25.828C55.6831 25.8658 55.6753 25.9062 55.6756 25.947V26.884H52.5826V25.947C52.5829 25.9062 52.5751 25.8658 52.5597 25.828C52.5443 25.7902 52.5216 25.7558 52.4929 25.7269C52.4642 25.6979 52.43 25.6748 52.3924 25.6591C52.3548 25.6433 52.3144 25.6351 52.2736 25.635C52.2328 25.6351 52.1924 25.6433 52.1548 25.6591C52.1172 25.6748 52.083 25.6979 52.0543 25.7269C52.0256 25.7558 52.0029 25.7902 51.9875 25.828C51.9721 25.8658 51.9643 25.9062 51.9646 25.947V27.197V28.759H51.6496H51.0406C50.9577 28.759 50.8782 28.7919 50.8196 28.8505C50.761 28.9091 50.7281 28.9886 50.7281 29.0715C50.7281 29.1544 50.761 29.2339 50.8196 29.2925C50.8782 29.3511 50.9577 29.384 51.0406 29.384H51.2206L49.5736 34.364H49.1776C49.0947 34.364 49.0152 34.3969 48.9566 34.4555C48.898 34.5141 48.8651 34.5936 48.8651 34.6765C48.8651 34.7594 48.898 34.8389 48.9566 34.8975C49.0152 34.9561 49.0947 34.989 49.1776 34.989H49.4866V35.614H35.8776V19.681V19.056V17.806C35.8776 17.784 35.8696 17.766 35.8656 17.745C35.8636 17.734 35.8666 17.723 35.8636 17.712L34.6336 13.779C34.6346 13.767 34.6396 13.757 34.6396 13.745V11.558V10.308V9.058C34.6399 9.01721 34.6321 8.97676 34.6167 8.93899C34.6013 8.90121 34.5786 8.86684 34.5499 8.83786C34.5212 8.80887 34.487 8.78584 34.4494 8.77008C34.4118 8.75431 34.3714 8.74613 34.3306 8.746C34.2898 8.74613 34.2494 8.75431 34.2118 8.77008C34.1742 8.78584 34.14 8.80887 34.1113 8.83786C34.0826 8.86684 34.0599 8.90121 34.0445 8.93899C34.0291 8.97676 34.0213 9.01721 34.0216 9.058V9.995H33.4516L32.2796 6.246H32.4756C32.5164 6.24587 32.5568 6.23769 32.5944 6.22193C32.632 6.20616 32.6662 6.18313 32.6949 6.15414C32.7236 6.12516 32.7463 6.09079 32.7617 6.05302C32.7771 6.01524 32.7849 5.9748 32.7846 5.934C32.7849 5.89321 32.7771 5.85276 32.7617 5.81499C32.7463 5.77721 32.7236 5.74284 32.6949 5.71386C32.6662 5.68487 32.632 5.66184 32.5944 5.64608C32.5568 5.63031 32.5164 5.62213 32.4756 5.622H32.1756V4.079V4.077L32.1656 2.827C32.1646 2.656 32.0256 2.517 31.8566 2.517H31.8546C31.8137 2.51739 31.7733 2.52586 31.7357 2.54193C31.6981 2.558 31.6641 2.58134 31.6355 2.61062C31.607 2.6399 31.5846 2.67453 31.5695 2.71253C31.5544 2.75052 31.5469 2.79112 31.5476 2.832L31.5546 3.767H30.3106V0.312002C30.3109 0.27104 30.303 0.230431 30.2875 0.192524C30.272 0.154616 30.2491 0.120161 30.2202 0.091149C30.1912 0.0621374 30.1569 0.0391448 30.119 0.0235001C30.0811 0.00785531 30.0406 -0.000131358 29.9996 1.63397e-06ZM28.4626 4.392H29.0716V5.623H28.4626V4.392ZM29.6896 4.392H30.3086V5.623H29.6896V4.392ZM30.9266 4.392H31.5546V5.623H30.9266V4.392ZM28.3646 6.266H31.6346L35.1446 17.494H33.4026V15.932C33.4029 15.8912 33.3951 15.8508 33.3797 15.813C33.3643 15.7752 33.3416 15.7408 33.3129 15.7119C33.2842 15.6829 33.25 15.6598 33.2124 15.6441C33.1748 15.6283 33.1344 15.6201 33.0936 15.62H32.0206L30.2916 10.828C30.2476 10.705 30.1316 10.623 30.0026 10.622H30.0006C29.9378 10.6222 29.8766 10.6414 29.825 10.6771C29.7734 10.7128 29.7339 10.7633 29.7116 10.822L27.8806 15.62H26.9076C26.8668 15.6201 26.8264 15.6283 26.7888 15.6441C26.7512 15.6598 26.717 15.6829 26.6883 15.7119C26.6596 15.7408 26.6369 15.7752 26.6215 15.813C26.6061 15.8508 26.5983 15.8912 26.5986 15.932V17.494H24.8566L28.3646 6.266ZM25.9786 10.621H26.3556L25.9786 11.823V11.558V10.621ZM33.6446 10.621H34.0206V11.558V11.823L33.6446 10.621ZM29.9926 11.822L31.5136 16.038C31.5358 16.0913 31.5717 16.1379 31.6176 16.173L31.6466 16.194C31.6936 16.223 31.7446 16.243 31.8036 16.243H32.7836V17.803V17.805C32.7833 17.8458 32.7911 17.8862 32.8065 17.924C32.8219 17.9618 32.8446 17.9962 32.8733 18.0251C32.902 18.0541 32.9362 18.0772 32.9738 18.0929C33.0114 18.1087 33.0518 18.1169 33.0926 18.117H33.7116H34.9486H35.2576V18.174C35.1587 18.1372 35.0541 18.1179 34.9486 18.117C34.7106 18.117 34.4946 18.211 34.3296 18.361C34.1646 18.211 33.9496 18.117 33.7106 18.117C33.1996 18.117 32.7826 18.538 32.7826 19.054V19.679C32.7823 19.7198 32.7901 19.7602 32.8055 19.798C32.8209 19.8358 32.8436 19.8702 32.8723 19.8991C32.901 19.9281 32.9352 19.9512 32.9728 19.9669C33.0104 19.9827 33.0508 19.9909 33.0916 19.991C33.1324 19.9909 33.1728 19.9827 33.2104 19.9669C33.248 19.9512 33.2822 19.9281 33.3109 19.8991C33.3396 19.8702 33.3623 19.8358 33.3777 19.798C33.3931 19.7602 33.4009 19.7198 33.4006 19.679V19.054C33.4006 18.882 33.5396 18.742 33.7096 18.742C33.8796 18.742 34.0186 18.883 34.0186 19.054V19.679C34.0183 19.7198 34.0261 19.7602 34.0415 19.798C34.0569 19.8358 34.0796 19.8702 34.1083 19.8991C34.137 19.9281 34.1712 19.9512 34.2088 19.9669C34.2464 19.9827 34.2868 19.9909 34.3276 19.991C34.3684 19.9909 34.4088 19.9827 34.4464 19.9669C34.484 19.9512 34.5182 19.9281 34.5469 19.8991C34.5756 19.8702 34.5983 19.8358 34.6137 19.798C34.6291 19.7602 34.6369 19.7198 34.6366 19.679V19.054C34.6366 18.882 34.7756 18.742 34.9456 18.742C35.1156 18.742 35.2546 18.883 35.2546 19.054V19.679V23.115H31.8526H28.1416H24.7396V19.68V19.055C24.7396 18.883 24.8786 18.743 25.0486 18.743C25.2186 18.743 25.3576 18.884 25.3576 19.055V19.68C25.3573 19.7208 25.3651 19.7612 25.3805 19.799C25.3959 19.8368 25.4186 19.8712 25.4473 19.9001C25.476 19.9291 25.5102 19.9522 25.5478 19.9679C25.5854 19.9837 25.6258 19.9919 25.6666 19.992C25.7074 19.9919 25.7478 19.9837 25.7854 19.9679C25.823 19.9522 25.8572 19.9291 25.8859 19.9001C25.9146 19.8712 25.9373 19.8368 25.9527 19.799C25.9681 19.7612 25.9759 19.7208 25.9756 19.68V19.055C25.9756 18.883 26.1146 18.743 26.2846 18.743C26.4546 18.743 26.5936 18.884 26.5936 19.055V19.68C26.5933 19.7208 26.6011 19.7612 26.6165 19.799C26.6319 19.8368 26.6546 19.8712 26.6833 19.9001C26.712 19.9291 26.7462 19.9522 26.7838 19.9679C26.8214 19.9837 26.8618 19.9919 26.9026 19.992C26.9434 19.9919 26.9838 19.9837 27.0214 19.9679C27.059 19.9522 27.0932 19.9291 27.1219 19.9001C27.1506 19.8712 27.1733 19.8368 27.1887 19.799C27.2041 19.7612 27.2119 19.7208 27.2116 19.68V19.055C27.2116 18.543 26.8016 18.126 26.2956 18.119H26.9026C26.9434 18.1189 26.9838 18.1107 27.0214 18.0949C27.059 18.0792 27.0932 18.0561 27.1219 18.0271C27.1506 17.9982 27.1733 17.9638 27.1887 17.926C27.2041 17.8882 27.2119 17.8478 27.2116 17.807V16.245H28.0886C28.1086 16.243 28.1236 16.237 28.1386 16.234C28.2466 16.216 28.3356 16.147 28.3756 16.047L29.9886 11.822H29.9926ZM24.7426 18.119H25.0456C24.9386 18.12 24.8376 18.141 24.7426 18.175V18.119ZM25.0636 18.119H26.2766C26.0436 18.122 25.8316 18.215 25.6706 18.362C25.5086 18.215 25.2976 18.122 25.0636 18.119ZM29.9996 18.119C28.8056 18.119 27.8346 19.1 27.8346 20.306C27.833 20.8826 28.0599 21.4364 28.4657 21.8461C28.8714 22.2558 29.423 22.488 29.9996 22.492C31.1936 22.492 32.1646 21.511 32.1646 20.305C32.1646 19.099 31.1936 18.119 29.9996 18.119ZM29.9996 18.744C30.8526 18.744 31.5456 19.444 31.5456 20.306C31.5456 21.168 30.8526 21.868 29.9996 21.868C29.1466 21.868 28.4536 21.168 28.4536 20.306C28.4536 19.444 29.1466 18.744 29.9996 18.744ZM29.9996 19.369C29.9588 19.3691 29.9184 19.3773 29.8808 19.3931C29.8432 19.4088 29.809 19.4319 29.7803 19.4609C29.7516 19.4898 29.7289 19.5242 29.7135 19.562C29.6981 19.5998 29.6903 19.6402 29.6906 19.681V20.306C29.6916 20.478 29.8296 20.618 29.9996 20.618C30.0226 20.616 30.0266 20.618 30.0326 20.618H30.9276C31.0105 20.618 31.09 20.5851 31.1486 20.5265C31.2072 20.4679 31.2401 20.3884 31.2401 20.3055C31.2401 20.2226 31.2072 20.1431 31.1486 20.0845C31.09 20.0259 31.0105 19.993 30.9276 19.993H30.3086V19.681C30.3089 19.6402 30.3011 19.5998 30.2857 19.562C30.2703 19.5242 30.2476 19.4898 30.2189 19.4609C30.1902 19.4319 30.156 19.4088 30.1184 19.3931C30.0808 19.3773 30.0404 19.3691 29.9996 19.369ZM24.7416 23.743H27.8346V24.68C27.8346 24.798 27.9016 24.906 28.0066 24.959L29.0726 25.497V26.554C29.0723 26.5948 29.0801 26.6352 29.0955 26.673C29.1109 26.7108 29.1336 26.7452 29.1623 26.7741C29.191 26.8031 29.2252 26.8262 29.2628 26.8419C29.3004 26.8577 29.3408 26.8659 29.3816 26.866H29.6906V28.116C29.6077 28.116 29.5282 28.1489 29.4696 28.2075C29.411 28.2661 29.3781 28.3456 29.3781 28.4285C29.3781 28.5114 29.411 28.5909 29.4696 28.6495C29.5282 28.7081 29.6077 28.741 29.6906 28.741H30.3096C30.3504 28.7409 30.3908 28.7327 30.4284 28.7169C30.466 28.7012 30.5002 28.6781 30.5289 28.6491C30.5576 28.6202 30.5803 28.5858 30.5957 28.548C30.6111 28.5102 30.6189 28.4698 30.6186 28.429C30.6189 28.3882 30.6111 28.3478 30.5957 28.31C30.5803 28.2722 30.5576 28.2378 30.5289 28.2089C30.5002 28.1799 30.466 28.1568 30.4284 28.1411C30.3908 28.1253 30.3504 28.1171 30.3096 28.117V26.867H30.6186C30.6594 26.8669 30.6998 26.8587 30.7374 26.8429C30.775 26.8272 30.8092 26.8041 30.8379 26.7751C30.8666 26.7462 30.8893 26.7118 30.9047 26.674C30.9201 26.6362 30.9279 26.5958 30.9276 26.555V25.498L31.9946 24.96C32.0996 24.907 32.1646 24.799 32.1646 24.681V23.744H35.2576V31.241H32.7836V29.991C32.7836 29.302 32.2286 28.741 31.5466 28.741C30.8646 28.741 30.3096 29.302 30.3096 29.991V31.241H29.6906V29.991C29.6906 29.302 29.1356 28.741 28.4536 28.741C27.7716 28.741 27.2166 29.302 27.2166 29.991V31.241H24.7426V23.744L24.7416 23.743ZM28.4526 23.744H31.5456V24.487L30.4796 25.025C30.3756 25.078 30.3086 25.186 30.3086 25.304V26.241H29.6896V25.304C29.6896 25.186 29.6236 25.078 29.5196 25.025L28.4526 24.487V23.744ZM4.33959 27.509H4.94859V28.74H4.33959V27.509ZM5.56659 27.509H6.18559V28.74H5.56659V27.509ZM6.80359 27.509H7.43159V28.74H6.80359V27.509ZM52.5816 27.509H53.1916V28.74H52.5816V27.509ZM53.8106 27.509H54.4296V28.74H53.8106V27.509ZM55.0466 27.509H55.6746V28.74H55.0466V27.509ZM28.4536 29.365C28.7946 29.365 29.0726 29.645 29.0726 29.99V31.552V32.801V34.363H27.8356V29.99C27.8356 29.645 28.1116 29.365 28.4536 29.365ZM31.5466 29.365C31.8876 29.365 32.1656 29.645 32.1656 29.99V34.364H30.9286V32.802V31.553V29.991C30.9286 29.646 31.2056 29.366 31.5476 29.366L31.5466 29.365ZM3.62959 29.383H8.13859L9.78759 34.381H9.10459H7.87159L6.10659 32.581C6.04859 32.522 5.96959 32.488 5.88759 32.488C5.80559 32.488 5.72559 32.521 5.66759 32.58L3.89259 34.381H2.91859H1.97659L3.62959 29.383ZM51.8726 29.383H56.3816L58.0306 34.381H57.2186H56.1146L54.3496 32.581C54.2916 32.522 54.2126 32.488 54.1306 32.488C54.0486 32.488 53.9686 32.521 53.9106 32.58L52.1376 34.381H51.1236C51.0946 34.372 51.0646 34.363 51.0326 34.363H50.2266L51.8726 29.383ZM24.7436 31.864H27.2176V34.363H26.9086C26.8678 34.3631 26.8274 34.3713 26.7898 34.3871C26.7522 34.4028 26.718 34.4259 26.6893 34.4549C26.6606 34.4838 26.6379 34.5182 26.6225 34.556C26.6071 34.5938 26.5993 34.6342 26.5996 34.675V35.924C26.5993 35.9648 26.6071 36.0052 26.6225 36.043C26.6379 36.0808 26.6606 36.1152 26.6893 36.1441C26.718 36.1731 26.7522 36.1962 26.7898 36.2119C26.8274 36.2277 26.8678 36.2359 26.9086 36.236H33.0946C33.1354 36.2359 33.1758 36.2277 33.2134 36.2119C33.251 36.1962 33.2852 36.1731 33.3139 36.1441C33.3426 36.1152 33.3653 36.0808 33.3807 36.043C33.3961 36.0052 33.4039 35.9648 33.4036 35.924V34.675C33.4039 34.6342 33.3961 34.5938 33.3807 34.556C33.3653 34.5182 33.3426 34.4838 33.3139 34.4549C33.2852 34.4259 33.251 34.4028 33.2134 34.3871C33.1758 34.3713 33.1354 34.3631 33.0946 34.363H32.7856V31.864H35.2596V35.925V39.049V43.735H32.7856V39.049C32.7856 38.187 32.0926 37.487 31.2396 37.487C30.7316 37.487 30.2846 37.739 30.0026 38.121C29.7206 37.739 29.2736 37.487 28.7656 37.487C27.9126 37.487 27.2196 38.187 27.2196 39.049V43.735H24.7456V39.049V35.925V31.864H24.7436ZM29.6916 31.864H30.3106V32.489H29.6916V31.864ZM29.6916 33.114H30.3106V34.364H29.6916V33.114ZM5.88559 33.246L7.52259 34.914C7.58059 34.973 7.66059 35.007 7.74259 35.007H9.10559H9.89859V35.671C9.79968 35.6342 9.69512 35.6149 9.58959 35.614C9.35159 35.614 9.13559 35.708 8.97059 35.858C8.80559 35.708 8.59059 35.614 8.35159 35.614C7.83959 35.614 7.42359 36.034 7.42359 36.551V37.176C7.42333 37.2168 7.43112 37.2572 7.44652 37.295C7.46192 37.3328 7.48462 37.3672 7.51333 37.3961C7.54203 37.4251 7.57618 37.4482 7.61381 37.4639C7.65143 37.4797 7.6918 37.4879 7.73259 37.488C7.77339 37.4879 7.81376 37.4797 7.85138 37.4639C7.88901 37.4482 7.92315 37.4251 7.95186 37.3961C7.98057 37.3672 8.00327 37.3328 8.01867 37.295C8.03407 37.2572 8.04186 37.2168 8.04159 37.176V36.551C8.04159 36.379 8.18059 36.239 8.35059 36.239C8.52059 36.239 8.65959 36.38 8.65959 36.551V37.176C8.65933 37.2168 8.66712 37.2572 8.68252 37.295C8.69792 37.3328 8.72062 37.3672 8.74933 37.3961C8.77803 37.4251 8.81218 37.4482 8.84981 37.4639C8.88743 37.4797 8.9278 37.4879 8.96859 37.488C9.00939 37.4879 9.04976 37.4797 9.08738 37.4639C9.12501 37.4482 9.15915 37.4251 9.18786 37.3961C9.21657 37.3672 9.23927 37.3328 9.25467 37.295C9.27007 37.2572 9.27786 37.2168 9.27759 37.176V36.551C9.27759 36.379 9.41659 36.239 9.58659 36.239C9.75659 36.239 9.89559 36.38 9.89559 36.551V37.176V39.05V53.108H8.62759V50.915C8.62759 49.365 7.37859 48.104 5.84459 48.104C4.31059 48.104 3.06059 49.365 3.06059 50.915V53.108H1.85559V37.175V36.55C1.85559 36.378 1.99459 36.238 2.16459 36.238C2.33459 36.238 2.47359 36.379 2.47359 36.55V37.175C2.47333 37.2158 2.48112 37.2562 2.49652 37.294C2.51192 37.3318 2.53462 37.3662 2.56333 37.3951C2.59203 37.4241 2.62618 37.4472 2.66381 37.4629C2.70143 37.4787 2.7418 37.4869 2.78259 37.487C2.82339 37.4869 2.86376 37.4787 2.90138 37.4629C2.93901 37.4472 2.97315 37.4241 3.00186 37.3951C3.03057 37.3662 3.05327 37.3318 3.06867 37.294C3.08407 37.2562 3.09186 37.2158 3.09159 37.175V36.55C3.09159 36.378 3.23059 36.238 3.40059 36.238C3.57059 36.238 3.70959 36.379 3.70959 36.55V37.175C3.70933 37.2158 3.71712 37.2562 3.73252 37.294C3.74792 37.3318 3.77062 37.3662 3.79933 37.3951C3.82803 37.4241 3.86218 37.4472 3.89981 37.4629C3.93743 37.4787 3.9778 37.4869 4.01859 37.487C4.05939 37.4869 4.09976 37.4787 4.13738 37.4629C4.17501 37.4472 4.20915 37.4241 4.23786 37.3951C4.26657 37.3662 4.28927 37.3318 4.30467 37.294C4.32007 37.2562 4.32786 37.2158 4.32759 37.175V36.55C4.32759 36.033 3.91159 35.613 3.39959 35.613C3.16159 35.613 2.94559 35.707 2.78059 35.857C2.61559 35.707 2.40059 35.613 2.16159 35.613C2.05607 35.6139 1.95151 35.6332 1.85259 35.67V35.006H2.91559H4.01759C4.05845 35.0061 4.09892 34.9981 4.13668 34.9825C4.17443 34.9668 4.20873 34.9439 4.23759 34.915L5.88159 33.246H5.88559ZM54.1286 33.246L55.7656 34.914C55.8236 34.973 55.9036 35.007 55.9856 35.007H57.2176H58.1456V35.671C58.0467 35.6342 57.9421 35.6149 57.8366 35.614C57.5986 35.614 57.3826 35.708 57.2186 35.858C57.0536 35.708 56.8386 35.614 56.5996 35.614C56.0876 35.614 55.6716 36.034 55.6716 36.551V37.176C55.6713 37.2168 55.6791 37.2572 55.6945 37.295C55.7099 37.3328 55.7326 37.3672 55.7613 37.3961C55.79 37.4251 55.8242 37.4482 55.8618 37.4639C55.8994 37.4797 55.9398 37.4879 55.9806 37.488C56.0214 37.4879 56.0618 37.4797 56.0994 37.4639C56.137 37.4482 56.1712 37.4251 56.1999 37.3961C56.2286 37.3672 56.2513 37.3328 56.2667 37.295C56.2821 37.2572 56.2899 37.2168 56.2896 37.176V36.551C56.2896 36.379 56.4286 36.239 56.5986 36.239C56.7686 36.239 56.9076 36.38 56.9076 36.551V37.176C56.9073 37.2168 56.9151 37.2572 56.9305 37.295C56.9459 37.3328 56.9686 37.3672 56.9973 37.3961C57.026 37.4251 57.0602 37.4482 57.0978 37.4639C57.1354 37.4797 57.1758 37.4879 57.2166 37.488C57.2574 37.4879 57.2978 37.4797 57.3354 37.4639C57.373 37.4482 57.4072 37.4251 57.4359 37.3961C57.4646 37.3672 57.4873 37.3328 57.5027 37.295C57.5181 37.2572 57.5259 37.2168 57.5256 37.176V36.551C57.5256 36.379 57.6646 36.239 57.8346 36.239C58.0046 36.239 58.1436 36.38 58.1436 36.551V37.176V53.108H56.8746V50.915C56.8746 49.365 55.6256 48.104 54.0916 48.104C52.5576 48.104 51.3076 49.365 51.3076 50.915V53.108H50.1036V39.049V37.175V36.55C50.1036 36.378 50.2426 36.238 50.4126 36.238C50.5826 36.238 50.7216 36.379 50.7216 36.55V37.175C50.7213 37.2158 50.7291 37.2562 50.7445 37.294C50.7599 37.3318 50.7826 37.3662 50.8113 37.3951C50.84 37.4241 50.8742 37.4472 50.9118 37.4629C50.9494 37.4787 50.9898 37.4869 51.0306 37.487C51.0714 37.4869 51.1118 37.4787 51.1494 37.4629C51.187 37.4472 51.2212 37.4241 51.2499 37.3951C51.2786 37.3662 51.3013 37.3318 51.3167 37.294C51.3321 37.2562 51.3399 37.2158 51.3396 37.175V36.55C51.3396 36.378 51.4786 36.238 51.6486 36.238C51.8186 36.238 51.9576 36.379 51.9576 36.55V37.175C51.9573 37.2158 51.9651 37.2562 51.9805 37.294C51.9959 37.3318 52.0186 37.3662 52.0473 37.3951C52.076 37.4241 52.1102 37.4472 52.1478 37.4629C52.1854 37.4787 52.2258 37.4869 52.2666 37.487C52.3074 37.4869 52.3478 37.4787 52.3854 37.4629C52.423 37.4472 52.4572 37.4241 52.4859 37.3951C52.5146 37.3662 52.5373 37.3318 52.5527 37.294C52.5681 37.2562 52.5759 37.2158 52.5756 37.175V36.55C52.5756 36.033 52.1596 35.613 51.6476 35.613C51.4096 35.613 51.1936 35.707 51.0286 35.857C50.8646 35.707 50.6486 35.613 50.4106 35.613C50.3051 35.6139 50.2005 35.6332 50.1016 35.67V35.006H52.2616C52.3436 35.006 52.4226 34.973 52.4806 34.915L54.1246 33.246H54.1286ZM5.87559 34.363C5.36359 34.363 4.94759 34.783 4.94759 35.3V37.174C4.94733 37.2148 4.95512 37.2552 4.97052 37.293C4.98592 37.3308 5.00862 37.3652 5.03733 37.3941C5.06603 37.4231 5.10018 37.4462 5.13781 37.4619C5.17543 37.4777 5.2158 37.4859 5.25659 37.486H6.49359C6.53439 37.4859 6.57476 37.4777 6.61238 37.4619C6.65001 37.4462 6.68415 37.4231 6.71286 37.3941C6.74157 37.3652 6.76427 37.3308 6.77967 37.293C6.79507 37.2552 6.80286 37.2148 6.80259 37.174V35.3C6.80259 34.783 6.38759 34.363 5.87559 34.363ZM54.1226 34.363C53.6106 34.363 53.1946 34.783 53.1946 35.3V37.174C53.1943 37.2148 53.2021 37.2552 53.2175 37.293C53.2329 37.3308 53.2556 37.3652 53.2843 37.3941C53.313 37.4231 53.3472 37.4462 53.3848 37.4619C53.4224 37.4777 53.4628 37.4859 53.5036 37.486H54.7406C54.7814 37.4859 54.8218 37.4777 54.8594 37.4619C54.897 37.4462 54.9312 37.4231 54.9599 37.3941C54.9886 37.3652 55.0113 37.3308 55.0267 37.293C55.0421 37.2552 55.0499 37.2148 55.0496 37.174V35.3C55.0496 34.783 54.6346 34.363 54.1226 34.363ZM5.87559 34.988C6.04559 34.988 6.18459 35.128 6.18459 35.3V36.862H5.56559V35.3C5.56559 35.128 5.70559 34.988 5.87559 34.988ZM27.2156 34.988H27.5246H27.8336V35.613H27.2146L27.2156 34.988ZM28.4526 34.988H29.0716V35.613H28.4526V34.988ZM29.6896 34.988H30.3086V35.613H29.6896V34.988ZM30.9266 34.988H31.5456V35.613H30.9266V34.988ZM32.1636 34.988H32.4726H32.7816V35.613H32.1626V34.988H32.1636ZM54.1226 34.988C54.2926 34.988 54.4316 35.128 54.4316 35.3V36.862H53.8126V35.3C53.8126 35.128 53.9526 34.988 54.1226 34.988ZM10.5146 36.237H24.1226V38.736H10.5156V37.174V36.549L10.5146 36.237ZM35.8756 36.237H49.4836V36.549V37.174V38.736H35.8756V36.237ZM28.7626 38.111C29.2746 38.111 29.6906 38.531 29.6906 39.048V43.734H27.8346V39.048C27.8346 38.531 28.2506 38.111 28.7626 38.111ZM31.2366 38.111C31.7476 38.111 32.1646 38.531 32.1646 39.048V43.734H30.3086V39.048C30.3086 38.531 30.7246 38.111 31.2366 38.111ZM5.87559 39.355C4.60559 39.355 3.54459 40.222 3.21159 41.399C3.19159 41.435 3.17959 41.475 3.17559 41.517C3.12659 41.726 3.09359 41.941 3.09359 42.166V46.539C3.09333 46.5797 3.10109 46.6201 3.11642 46.6578C3.13176 46.6955 3.15437 46.7298 3.18297 46.7588C3.21158 46.7878 3.2456 46.8108 3.28311 46.8266C3.32062 46.8425 3.36088 46.8507 3.40159 46.851H8.34959C8.39039 46.8509 8.43076 46.8427 8.46838 46.8269C8.50601 46.8112 8.54015 46.7881 8.56886 46.7591C8.59757 46.7302 8.62027 46.6958 8.63567 46.658C8.65107 46.6202 8.65886 46.5798 8.65859 46.539V42.166C8.65859 41.939 8.62559 41.721 8.57559 41.509C8.57147 41.4705 8.55992 41.4331 8.54159 41.399C8.20959 40.222 7.14559 39.355 5.87559 39.355ZM54.1246 39.355C52.8546 39.355 51.7926 40.222 51.4596 41.399C51.4396 41.435 51.4286 41.475 51.4246 41.517C51.3756 41.726 51.3416 41.941 51.3416 42.166V46.539C51.3413 46.5798 51.3491 46.6202 51.3645 46.658C51.3799 46.6958 51.4026 46.7302 51.4313 46.7591C51.46 46.7881 51.4942 46.8112 51.5318 46.8269C51.5694 46.8427 51.6098 46.8509 51.6506 46.851H56.5986C56.6394 46.8509 56.6798 46.8427 56.7174 46.8269C56.755 46.8112 56.7892 46.7881 56.8179 46.7591C56.8466 46.7302 56.8693 46.6958 56.8847 46.658C56.9001 46.6202 56.9079 46.5798 56.9076 46.539V42.166C56.9076 41.939 56.8746 41.722 56.8246 41.511C56.8186 41.47 56.8076 41.434 56.7896 41.4C56.4576 40.223 55.3946 39.355 54.1246 39.355ZM10.5156 39.361H24.1236V44.359H23.5046V41.704C23.5054 41.4158 23.392 41.139 23.1892 40.9341C22.9865 40.7293 22.7108 40.6131 22.4226 40.611C22.1196 40.611 21.8466 40.739 21.6496 40.942C21.5498 40.8375 21.4298 40.7543 21.297 40.6974C21.1641 40.6405 21.0211 40.6111 20.8766 40.611C20.5884 40.6131 20.3127 40.7293 20.11 40.9341C19.9072 41.139 19.7938 41.4158 19.7946 41.704V44.359H19.1756V41.704C19.1764 41.4158 19.063 41.139 18.8602 40.9341C18.6575 40.7293 18.3818 40.6131 18.0936 40.611C17.7906 40.611 17.5176 40.739 17.3206 40.942C17.2208 40.8375 17.1008 40.7543 16.968 40.6974C16.8351 40.6405 16.6921 40.6111 16.5476 40.611C16.2594 40.6131 15.9837 40.7293 15.781 40.9341C15.5782 41.139 15.4648 41.4158 15.4656 41.704V44.359H14.8466V41.704C14.8474 41.4158 14.734 41.139 14.5312 40.9341C14.3285 40.7293 14.0528 40.6131 13.7646 40.611C13.4616 40.611 13.1886 40.739 12.9916 40.942C12.8918 40.8375 12.7718 40.7543 12.639 40.6974C12.5061 40.6405 12.3631 40.6111 12.2186 40.611C11.9304 40.6131 11.6547 40.7293 11.452 40.9341C11.2492 41.139 11.1358 41.4158 11.1366 41.704V44.359H10.5176V39.361H10.5156ZM35.8766 39.361H49.4846V44.359H48.8666V41.704C48.8674 41.4156 48.7539 41.1386 48.5509 40.9338C48.3479 40.7289 48.072 40.6129 47.7836 40.611C47.4806 40.611 47.2076 40.739 47.0106 40.942C46.9108 40.8375 46.7908 40.7543 46.658 40.6974C46.5251 40.6405 46.3821 40.6111 46.2376 40.611C45.9494 40.6131 45.6737 40.7293 45.471 40.9341C45.2682 41.139 45.1548 41.4158 45.1556 41.704V44.359H44.5366V41.704C44.5374 41.4158 44.424 41.139 44.2212 40.9341C44.0185 40.7293 43.7428 40.6131 43.4546 40.611C43.1516 40.611 42.8776 40.739 42.6816 40.942C42.5818 40.8375 42.4618 40.7543 42.329 40.6974C42.1961 40.6405 42.0531 40.6111 41.9086 40.611C41.6202 40.6129 41.3443 40.7289 41.1413 40.9338C40.9383 41.1386 40.8248 41.4156 40.8256 41.704V44.359H40.2076V41.704C40.2084 41.4156 40.0949 41.1386 39.8919 40.9338C39.6889 40.7289 39.413 40.6129 39.1246 40.611C38.8216 40.611 38.5476 40.739 38.3516 40.942C38.2518 40.8375 38.1318 40.7543 37.999 40.6974C37.8661 40.6405 37.7231 40.6111 37.5786 40.611C37.2902 40.6129 37.0143 40.7289 36.8113 40.9338C36.6083 41.1386 36.4948 41.4156 36.4956 41.704V44.359H35.8776L35.8766 39.361ZM5.87659 39.98C6.73959 39.98 7.48159 40.496 7.82859 41.236H3.92459C4.0966 40.8627 4.37154 40.5463 4.71712 40.3238C5.06271 40.1013 5.46559 39.982 5.87659 39.98ZM54.1236 39.98C54.9866 39.98 55.7286 40.496 56.0756 41.236H52.1726C52.3446 40.8627 52.6195 40.5463 52.9651 40.3238C53.3107 40.1013 53.7126 39.982 54.1236 39.98ZM12.2166 41.236C12.4716 41.236 12.6806 41.447 12.6806 41.705V44.36H11.7526V41.705C11.7526 41.447 11.9606 41.236 12.2166 41.236ZM13.7626 41.236C14.0176 41.236 14.2266 41.447 14.2266 41.705V44.36H13.2986V41.705C13.2986 41.447 13.5066 41.236 13.7626 41.236ZM16.5456 41.236C16.8006 41.236 17.0096 41.447 17.0096 41.705V44.36H16.0816V41.705C16.0816 41.447 16.2896 41.236 16.5456 41.236ZM18.0916 41.236C18.3466 41.236 18.5556 41.447 18.5556 41.705V44.36H17.6276V41.705C17.6276 41.447 17.8356 41.236 18.0916 41.236ZM20.8756 41.236C21.1306 41.236 21.3396 41.447 21.3396 41.705V44.36H20.4116V41.705C20.4116 41.447 20.6196 41.236 20.8756 41.236ZM22.4216 41.236C22.6766 41.236 22.8856 41.447 22.8856 41.705V44.36H21.9576V41.705C21.9576 41.447 22.1666 41.236 22.4216 41.236ZM37.5766 41.236C37.8316 41.236 38.0406 41.447 38.0406 41.705V44.36H37.1126V41.705C37.1126 41.447 37.3206 41.236 37.5766 41.236ZM39.1226 41.236C39.3776 41.236 39.5866 41.447 39.5866 41.705V44.36H38.6586V41.705C38.6586 41.447 38.8666 41.236 39.1226 41.236ZM41.9066 41.236C42.1616 41.236 42.3706 41.447 42.3706 41.705V44.36H41.4426V41.705C41.4426 41.447 41.6506 41.236 41.9066 41.236ZM43.4526 41.236C43.7076 41.236 43.9166 41.447 43.9166 41.705V44.36H42.9886V41.705C42.9886 41.447 43.1966 41.236 43.4526 41.236ZM46.2356 41.236C46.4916 41.236 46.6996 41.447 46.6996 41.705V44.36H45.7716V41.705C45.7716 41.447 45.9796 41.236 46.2356 41.236ZM47.7816 41.236C48.0376 41.236 48.2456 41.447 48.2456 41.705V44.36H47.3176V41.705C47.3176 41.447 47.5256 41.236 47.7816 41.236ZM3.74059 41.861H4.32759V42.486H3.70859V42.167C3.70859 42.062 3.72659 41.961 3.74059 41.861ZM4.94659 41.861H5.56559V42.486H4.94659V41.861ZM6.18359 41.861H6.80259V42.486H6.18359V41.861ZM7.42059 41.861H8.00859C8.02359 41.962 8.03859 42.062 8.03859 42.167V42.486H7.41959L7.42059 41.861ZM51.9886 41.861H52.5756V42.486H51.9566V42.167C51.9566 42.062 51.9736 41.961 51.9886 41.861ZM53.1946 41.861H53.8126V42.486H53.1946V41.861ZM54.4316 41.861H55.0496V42.486H54.4316V41.861ZM55.6686 41.861H56.2566C56.2706 41.962 56.2866 42.063 56.2866 42.167V42.486H55.6676L55.6686 41.861ZM3.71059 43.11H4.32959V46.228H3.71059V43.11ZM4.94759 43.11H5.56659V46.228H4.94759V43.11ZM6.18459 43.11H6.80359V46.228H6.18459V43.11ZM7.42159 43.11H8.04059V46.228H7.42159V43.11ZM51.9576 43.11H52.5766V46.228H51.9576V43.11ZM53.1946 43.11H53.8126V46.228H53.1946V43.11ZM54.4316 43.11H55.0496V46.228H54.4316V43.11ZM55.6686 43.11H56.2876V46.228H55.6686V43.11ZM24.7436 44.36H27.5256H29.9996H32.4736H35.2566V53.107H33.3696V49.04C33.3696 47.146 31.8426 45.604 29.9676 45.604C28.0926 45.604 26.5656 47.146 26.5656 49.04V53.107H24.7426L24.7436 44.36ZM10.5156 44.985H11.4436H12.9896H14.5356H15.7726H17.3186H18.8646H20.1016H21.6476H23.1936H24.1216V53.107H23.5026V50.604C23.5026 49.571 22.6706 48.73 21.6466 48.73C20.6226 48.73 19.7906 49.571 19.7906 50.604V53.107H19.1716V50.604C19.1716 49.571 18.3396 48.73 17.3156 48.73C16.2916 48.73 15.4596 49.571 15.4596 50.604V53.107H14.8406V50.604C14.8406 49.571 14.0086 48.73 12.9846 48.73C11.9606 48.73 11.1286 49.571 11.1286 50.604V53.107H10.5096V44.985H10.5156ZM35.8766 44.985H36.8046H38.3506H39.8966H41.1336H42.6796H44.2256H45.4626H47.0086H48.5546H49.4826V53.107H48.8646V50.604C48.8646 49.571 48.0316 48.73 47.0086 48.73C45.9856 48.73 45.1526 49.571 45.1526 50.604V53.107H44.5336V50.604C44.5336 49.571 43.7006 48.73 42.6776 48.73C41.6546 48.73 40.8216 49.571 40.8216 50.604V53.107H40.2036V50.604C40.2036 49.571 39.3706 48.73 38.3476 48.73C37.3246 48.73 36.4916 49.571 36.4916 50.604V53.107H35.8736V44.985H35.8766ZM11.4436 45.604C11.4028 45.6041 11.3624 45.6123 11.3248 45.6281C11.2872 45.6438 11.253 45.6669 11.2243 45.6959C11.1956 45.7248 11.1729 45.7592 11.1575 45.797C11.1421 45.8348 11.1343 45.8752 11.1346 45.916V47.478C11.1343 47.5188 11.1421 47.5592 11.1575 47.597C11.1729 47.6348 11.1956 47.6692 11.2243 47.6981C11.253 47.7271 11.2872 47.7502 11.3248 47.7659C11.3624 47.7817 11.4028 47.7899 11.4436 47.79H12.9896H14.5356C14.5764 47.7899 14.6168 47.7817 14.6544 47.7659C14.692 47.7502 14.7262 47.7271 14.7549 47.6981C14.7836 47.6692 14.8063 47.6348 14.8217 47.597C14.8371 47.5592 14.8449 47.5188 14.8446 47.478V45.916C14.8449 45.8752 14.8371 45.8348 14.8217 45.797C14.8063 45.7592 14.7836 45.7248 14.7549 45.6959C14.7262 45.6669 14.692 45.6438 14.6544 45.6281C14.6168 45.6123 14.5764 45.6041 14.5356 45.604H12.9896H11.4436ZM15.7736 45.604C15.7328 45.6041 15.6924 45.6123 15.6548 45.6281C15.6172 45.6438 15.583 45.6669 15.5543 45.6959C15.5256 45.7248 15.5029 45.7592 15.4875 45.797C15.4721 45.8348 15.4643 45.8752 15.4646 45.916V47.478C15.4643 47.5188 15.4721 47.5592 15.4875 47.597C15.5029 47.6348 15.5256 47.6692 15.5543 47.6981C15.583 47.7271 15.6172 47.7502 15.6548 47.7659C15.6924 47.7817 15.7328 47.7899 15.7736 47.79H17.3196H18.8656C18.9064 47.7899 18.9468 47.7817 18.9844 47.7659C19.022 47.7502 19.0562 47.7271 19.0849 47.6981C19.1136 47.6692 19.1363 47.6348 19.1517 47.597C19.1671 47.5592 19.1749 47.5188 19.1746 47.478V45.916C19.1749 45.8752 19.1671 45.8348 19.1517 45.797C19.1363 45.7592 19.1136 45.7248 19.0849 45.6959C19.0562 45.6669 19.022 45.6438 18.9844 45.6281C18.9468 45.6123 18.9064 45.6041 18.8656 45.604H17.3196H15.7736ZM20.1036 45.604C20.0628 45.6041 20.0224 45.6123 19.9848 45.6281C19.9472 45.6438 19.913 45.6669 19.8843 45.6959C19.8556 45.7248 19.8329 45.7592 19.8175 45.797C19.8021 45.8348 19.7943 45.8752 19.7946 45.916V47.478C19.7943 47.5188 19.8021 47.5592 19.8175 47.597C19.8329 47.6348 19.8556 47.6692 19.8843 47.6981C19.913 47.7271 19.9472 47.7502 19.9848 47.7659C20.0224 47.7817 20.0628 47.7899 20.1036 47.79H21.6496H23.1956C23.2364 47.7899 23.2768 47.7817 23.3144 47.7659C23.352 47.7502 23.3862 47.7271 23.4149 47.6981C23.4436 47.6692 23.4663 47.6348 23.4817 47.597C23.4971 47.5592 23.5049 47.5188 23.5046 47.478V45.916C23.5049 45.8752 23.4971 45.8348 23.4817 45.797C23.4663 45.7592 23.4436 45.7248 23.4149 45.6959C23.3862 45.6669 23.352 45.6438 23.3144 45.6281C23.2768 45.6123 23.2364 45.6041 23.1956 45.604H21.6496H20.1036ZM36.8046 45.604C36.7638 45.6041 36.7234 45.6123 36.6858 45.6281C36.6482 45.6438 36.614 45.6669 36.5853 45.6959C36.5566 45.7248 36.5339 45.7592 36.5185 45.797C36.5031 45.8348 36.4953 45.8752 36.4956 45.916V47.478C36.4953 47.5188 36.5031 47.5592 36.5185 47.597C36.5339 47.6348 36.5566 47.6692 36.5853 47.6981C36.614 47.7271 36.6482 47.7502 36.6858 47.7659C36.7234 47.7817 36.7638 47.7899 36.8046 47.79H38.3506H39.8966C39.9374 47.7899 39.9778 47.7817 40.0154 47.7659C40.053 47.7502 40.0872 47.7271 40.1159 47.6981C40.1446 47.6692 40.1673 47.6348 40.1827 47.597C40.1981 47.5592 40.2059 47.5188 40.2056 47.478V45.916C40.2059 45.8752 40.1981 45.8348 40.1827 45.797C40.1673 45.7592 40.1446 45.7248 40.1159 45.6959C40.0872 45.6669 40.053 45.6438 40.0154 45.6281C39.9778 45.6123 39.9374 45.6041 39.8966 45.604H38.3506H36.8046ZM41.1346 45.604C41.0938 45.6041 41.0534 45.6123 41.0158 45.6281C40.9782 45.6438 40.944 45.6669 40.9153 45.6959C40.8866 45.7248 40.8639 45.7592 40.8485 45.797C40.8331 45.8348 40.8253 45.8752 40.8256 45.916V47.478C40.8253 47.5188 40.8331 47.5592 40.8485 47.597C40.8639 47.6348 40.8866 47.6692 40.9153 47.6981C40.944 47.7271 40.9782 47.7502 41.0158 47.7659C41.0534 47.7817 41.0938 47.7899 41.1346 47.79H42.6806H44.2266C44.2674 47.7899 44.3078 47.7817 44.3454 47.7659C44.383 47.7502 44.4172 47.7271 44.4459 47.6981C44.4746 47.6692 44.4973 47.6348 44.5127 47.597C44.5281 47.5592 44.5359 47.5188 44.5356 47.478V45.916C44.5359 45.8752 44.5281 45.8348 44.5127 45.797C44.4973 45.7592 44.4746 45.7248 44.4459 45.6959C44.4172 45.6669 44.383 45.6438 44.3454 45.6281C44.3078 45.6123 44.2674 45.6041 44.2266 45.604H42.6796H41.1346ZM45.4646 45.604C45.4238 45.6041 45.3834 45.6123 45.3458 45.6281C45.3082 45.6438 45.274 45.6669 45.2453 45.6959C45.2166 45.7248 45.1939 45.7592 45.1785 45.797C45.1631 45.8348 45.1553 45.8752 45.1556 45.916V47.478C45.1553 47.5188 45.1631 47.5592 45.1785 47.597C45.1939 47.6348 45.2166 47.6692 45.2453 47.6981C45.274 47.7271 45.3082 47.7502 45.3458 47.7659C45.3834 47.7817 45.4238 47.7899 45.4646 47.79H47.0106H48.5566C48.5974 47.7899 48.6378 47.7817 48.6754 47.7659C48.713 47.7502 48.7472 47.7271 48.7759 47.6981C48.8046 47.6692 48.8273 47.6348 48.8427 47.597C48.8581 47.5592 48.8659 47.5188 48.8656 47.478V45.916C48.8659 45.8752 48.8581 45.8348 48.8427 45.797C48.8273 45.7592 48.8046 45.7248 48.7759 45.6959C48.7472 45.6669 48.713 45.6438 48.6754 45.6281C48.6378 45.6123 48.5974 45.6041 48.5566 45.604H47.0096H45.4646ZM11.7536 46.229H12.6816V47.166H11.7536V46.229ZM13.2996 46.229H14.2276V47.166H13.2996V46.229ZM16.0836 46.229H17.0116V47.166H16.0836V46.229ZM17.6296 46.229H18.5576V47.166H17.6296V46.229ZM20.4136 46.229H21.3416V47.166H20.4136V46.229ZM21.9596 46.229H22.8876V47.166H21.9596V46.229ZM29.9696 46.229C31.5046 46.229 32.7536 47.49 32.7536 49.041V53.102H27.1866V49.041C27.1866 47.491 28.4356 46.229 29.9706 46.229H29.9696ZM37.1146 46.229H38.0426V47.166H37.1146V46.229ZM38.6606 46.229H39.5886V47.166H38.6606V46.229ZM41.4446 46.229H42.3726V47.166H41.4446V46.229ZM42.9906 46.229H43.9186V47.166H42.9906V46.229ZM45.7746 46.229H46.7026V47.166H45.7746V46.229ZM47.3206 46.229H48.2486V47.166H47.3206V46.229ZM5.84459 48.727C7.03859 48.727 8.00959 49.708 8.00959 50.914V53.101H3.67959V50.914C3.67959 49.708 4.65059 48.727 5.84459 48.727ZM54.0916 48.727C55.2856 48.727 56.2566 49.708 56.2566 50.914V53.101H51.9266V50.914C51.9266 49.708 52.8976 48.727 54.0916 48.727ZM12.9886 49.354C13.6706 49.354 14.2256 49.914 14.2256 50.604V53.107H11.7516V50.604C11.7516 49.915 12.3066 49.354 12.9886 49.354ZM17.3186 49.354C18.0006 49.354 18.5556 49.914 18.5556 50.604V53.107H16.0816V50.604C16.0816 49.915 16.6366 49.354 17.3186 49.354ZM21.6486 49.354C22.3306 49.354 22.8856 49.914 22.8856 50.604V53.107H20.4116V50.604C20.4116 49.915 20.9666 49.354 21.6486 49.354ZM38.3496 49.354C39.0316 49.354 39.5866 49.914 39.5866 50.604V53.107H37.1126V50.604C37.1126 49.915 37.6676 49.354 38.3496 49.354ZM42.6796 49.354C43.3616 49.354 43.9166 49.914 43.9166 50.604V53.107H41.4426V50.604C41.4426 49.915 41.9976 49.354 42.6796 49.354ZM47.0096 49.354C47.6916 49.354 48.2466 49.914 48.2466 50.604V53.107H45.7726V50.604C45.7726 49.915 46.3276 49.354 47.0096 49.354Z" fill="#323C47"/>
</g>
<defs>
<clipPath id="clip0_1557_164">
<rect width="60" height="54" fill="white"/>
</clipPath>
</defs>
</svg>
