<svg width="374" height="94" viewBox="0 0 374 94" fill="none" xmlns="http://www.w3.org/2000/svg">
<path fill-rule="evenodd" clip-rule="evenodd" d="M41.0406 21.85C40.2067 21.0666 39.2774 20.394 38.253 19.8329C35.8946 18.5405 33.1419 17.8954 29.996 17.8954C26.5134 17.8954 23.4234 18.682 20.7274 20.2545C18.0317 21.8275 15.9246 24.0741 14.4083 26.9956C12.8921 29.9156 12.134 33.2869 12.134 37.1064C12.134 41.0382 12.906 44.4646 14.4507 47.3853C15.9955 50.3057 18.1443 52.5535 20.8966 54.126C23.6485 55.6985 26.8502 56.4848 30.5017 56.4848C34.9958 56.4848 38.6739 55.2915 41.5387 52.9046C44.404 50.5173 46.2852 47.1883 47.184 42.9198H26.9632V33.9043H58.8119V44.1836C58.0256 48.2837 56.341 52.0759 53.7567 55.5586C51.1724 59.0413 47.8439 61.8352 43.7727 63.942C39.6999 66.0479 35.1357 67.1013 30.0805 67.1013C24.407 67.1013 19.2813 65.8236 14.704 63.2683C10.1251 60.7121 6.53071 57.1593 3.91821 52.6097C1.30661 48.0594 0 42.8913 0 37.1064C0 31.3201 1.30661 26.1388 3.91821 21.5607C6.53071 16.9819 10.1251 13.416 14.704 10.8598C19.2813 8.30446 24.3793 7.02637 29.996 7.02637C33.9884 7.02637 37.6645 7.61286 41.0251 8.78436L41.0406 21.85Z" fill="white"/>
<path fill-rule="evenodd" clip-rule="evenodd" d="M79.3712 27.1658C80.8878 24.6945 82.8679 22.7568 85.3111 21.3525C87.7542 19.9482 90.5486 19.2461 93.694 19.2461V31.6312H90.5766C86.8697 31.6312 84.0754 32.5017 82.1938 34.243C80.3122 35.9841 79.3712 39.0172 79.3712 43.342V66.5954H67.576V19.9202H79.3712V27.1658Z" fill="white"/>
<path fill-rule="evenodd" clip-rule="evenodd" d="M98.5833 43.0896C98.5833 38.3713 99.524 34.1868 101.406 30.5361C103.287 26.8851 105.843 24.0768 109.073 22.111C112.302 20.1451 115.911 19.1621 119.899 19.1621C123.381 19.1621 126.428 19.8642 129.04 21.2685C131.652 22.6725 133.744 24.4419 135.317 26.5764V19.9204H147.196V66.5956H135.317V59.7712C133.8 61.9618 131.708 63.7732 129.04 65.2055C126.372 66.6379 123.297 67.3539 119.815 67.3539C115.883 67.3539 112.302 66.3428 109.073 64.3208C105.843 62.2989 103.287 59.4484 101.406 55.7693C99.524 52.0905 98.5833 47.8637 98.5833 43.0896ZM135.317 43.258C135.317 40.3936 134.755 37.9362 133.632 35.8859C132.509 33.8359 130.992 32.2632 129.082 31.1679C127.173 30.0726 125.123 29.525 122.932 29.525C120.741 29.525 118.719 30.0587 116.866 31.1257C115.012 32.193 113.51 33.7517 112.359 35.8017C111.207 37.8518 110.631 40.281 110.631 43.0896C110.631 45.8979 111.207 48.3552 112.359 50.4614C113.51 52.5678 115.026 54.1827 116.908 55.3061C118.79 56.4292 120.798 56.991 122.932 56.991C125.123 56.991 127.173 56.4433 129.082 55.348C130.992 54.2527 132.509 52.6801 133.632 50.6301C134.755 48.5798 135.317 46.1227 135.317 43.258Z" fill="white"/>
<path fill-rule="evenodd" clip-rule="evenodd" d="M184.609 19.2461C190.17 19.2461 194.663 21.0013 198.09 24.512C201.516 28.0224 203.229 32.923 203.229 39.2139V66.5954H191.434V40.8146C191.434 37.1075 190.507 34.2569 188.653 32.263C186.8 30.2692 184.272 29.2722 181.071 29.2722C177.813 29.2722 175.244 30.2692 173.362 32.263C171.48 34.2569 170.539 37.1075 170.539 40.8146V66.5954H158.744V19.9202H170.539V25.7334C172.112 23.7115 174.12 22.1247 176.563 20.9732C179.007 19.8218 181.689 19.2461 184.609 19.2461Z" fill="white"/>
<path fill-rule="evenodd" clip-rule="evenodd" d="M211.406 43.0872C211.406 38.3688 212.347 34.1839 214.229 30.5331C216.111 26.8817 218.68 24.073 221.939 22.107C225.197 20.1411 228.82 19.1578 232.808 19.1578C235.841 19.1578 238.734 19.8178 241.487 21.1378C244.239 22.4578 246.43 24.2136 248.059 26.4044V11.0349L260.024 0.00429535V66.5955H248.059V59.6862C246.599 61.9895 244.548 63.843 241.908 65.2473C239.268 66.6517 236.207 67.3539 232.724 67.3539C228.792 67.3539 225.197 66.3425 221.939 64.3203C218.68 62.2981 216.111 59.4473 214.229 55.7684C212.347 52.0889 211.406 47.8618 211.406 43.0872ZM259.937 0H260.024V0.00429535L259.937 0ZM248.143 43.2558C248.143 40.3909 247.581 37.9336 246.458 35.8834C245.334 33.8331 243.818 32.2601 241.908 31.165C239.998 30.0692 237.948 29.5217 235.757 29.5217C233.567 29.5217 231.544 30.0552 229.69 31.1228C227.837 32.1898 226.334 33.7487 225.183 35.799C224.031 37.8493 223.455 40.2785 223.455 43.0872C223.455 45.8958 224.031 48.3537 225.183 50.4602C226.334 52.5661 227.851 54.1813 229.732 55.3045C231.614 56.4284 233.623 56.99 235.757 56.99C237.948 56.99 239.998 56.4424 241.908 55.3467C243.818 54.2516 245.334 52.6786 246.458 50.6283C247.581 48.578 248.143 46.1207 248.143 43.2558Z" fill="white"/>
<path fill-rule="evenodd" clip-rule="evenodd" d="M268.534 43.0896C268.534 38.3713 269.475 34.1868 271.356 30.5361C273.238 26.8851 275.794 24.0768 279.023 22.111C282.253 20.1451 285.862 19.1621 289.85 19.1621C293.332 19.1621 296.379 19.8642 298.991 21.2685C301.603 22.6725 303.695 24.4419 305.268 26.5764V19.9204H317.147V66.5956H305.268V59.7712C303.751 61.9618 301.659 63.7732 298.991 65.2055C296.323 66.6379 293.248 67.3539 289.765 67.3539C285.834 67.3539 282.253 66.3428 279.023 64.3208C275.794 62.2989 273.238 59.4484 271.356 55.7693C269.475 52.0905 268.534 47.8637 268.534 43.0896ZM305.268 43.258C305.268 40.3936 304.706 37.9362 303.583 35.8859C302.459 33.8359 300.943 32.2632 299.033 31.1679C297.123 30.0726 295.073 29.525 292.883 29.525C290.692 29.525 288.67 30.0587 286.817 31.1257C284.963 32.193 283.461 33.7517 282.309 35.8017C281.158 37.8518 280.582 40.281 280.582 43.0896C280.582 45.8979 281.158 48.3552 282.309 50.4614C283.461 52.5678 284.977 54.1827 286.859 55.3061C288.74 56.4292 290.748 56.991 292.883 56.991C295.073 56.991 297.123 56.4433 299.033 55.348C300.943 54.2527 302.459 52.6801 303.583 50.6301C304.706 48.5798 305.268 46.1227 305.268 43.258Z" fill="white"/>
<path fill-rule="evenodd" clip-rule="evenodd" d="M373.352 19.9175L342.849 92.4541L335.398 79.9471L342.008 65.4162L323.303 19.9175H336.531L348.58 52.5253L360.797 19.9175H373.352Z" fill="white"/>
<path fill-rule="evenodd" clip-rule="evenodd" d="M55.173 25.0329H44.3828V10.0063C48.551 12.1636 53.8493 17.6642 55.173 25.0329Z" fill="white"/>
<path fill-rule="evenodd" clip-rule="evenodd" d="M328.747 93.9825H339.679L333.418 83L328.747 93.9825Z" fill="white"/>
</svg>
