<svg width="374" height="95" viewBox="0 0 374 95" fill="none" xmlns="http://www.w3.org/2000/svg">
<path fill-rule="evenodd" clip-rule="evenodd" d="M41.1831 22.7826C40.3492 21.9992 39.4199 21.3266 38.3955 20.7655C36.0371 19.4731 33.2844 18.828 30.1385 18.828C26.6559 18.828 23.5659 19.6146 20.8699 21.1871C18.1742 22.7601 16.0671 25.0067 14.5508 27.9282C13.0346 30.8482 12.2765 34.2195 12.2765 38.039C12.2765 41.9707 13.0485 45.3972 14.5932 48.3179C16.138 51.2382 18.2868 53.4861 21.0391 55.0586C23.791 56.6311 26.9927 57.4174 30.6442 57.4174C35.1383 57.4174 38.8164 56.2241 41.6812 53.8372C44.5465 51.4499 46.4277 48.1209 47.3265 43.8524H27.1057V34.8369H58.9544V45.1162C58.1681 49.2163 56.4835 53.0085 53.8992 56.4912C51.3149 59.9739 47.9864 62.7678 43.9152 64.8746C39.8424 66.9805 35.2782 68.0339 30.223 68.0339C24.5495 68.0339 19.4238 66.7562 14.8465 64.2009C10.2676 61.6447 6.67317 58.0919 4.06067 53.5423C1.44907 48.992 0.142456 43.8239 0.142456 38.039C0.142456 32.2527 1.44907 27.0714 4.06067 22.4933C6.67317 17.9145 10.2676 14.3486 14.8465 11.7924C19.4238 9.23709 24.5218 7.95898 30.1385 7.95898C34.1309 7.95898 37.807 8.54548 41.1676 9.71698L41.1831 22.7826Z" fill="#DE1275"/>
<path fill-rule="evenodd" clip-rule="evenodd" d="M79.5137 28.0984C81.0303 25.6271 83.0103 23.6894 85.4535 22.2851C87.8966 20.8808 90.691 20.1787 93.8364 20.1787V32.5638H90.7191C87.0122 32.5638 84.2178 33.4343 82.3362 35.1756C80.4546 36.9167 79.5137 39.9498 79.5137 44.2746V67.528H67.7185V20.8527H79.5137V28.0984Z" fill="#DE1275"/>
<path fill-rule="evenodd" clip-rule="evenodd" d="M98.7257 44.0222C98.7257 39.3039 99.6665 35.1194 101.548 31.4687C103.43 27.8177 105.985 25.0094 109.215 23.0436C112.445 21.0777 116.054 20.0947 120.041 20.0947C123.524 20.0947 126.571 20.7968 129.183 22.2011C131.794 23.6051 133.887 25.3745 135.459 27.509V20.8529H147.339V67.5282H135.459V60.7038C133.943 62.8944 131.85 64.7058 129.183 66.1381C126.515 67.5705 123.44 68.2865 119.957 68.2865C116.025 68.2865 112.445 67.2754 109.215 65.2534C105.985 63.2315 103.43 60.3809 101.548 56.7019C99.6665 53.0231 98.7257 48.7963 98.7257 44.0222ZM135.459 44.1906C135.459 41.3262 134.898 38.8688 133.774 36.8185C132.651 34.7685 131.134 33.1958 129.225 32.1005C127.315 31.0052 125.265 30.4576 123.074 30.4576C120.884 30.4576 118.862 30.9913 117.008 32.0583C115.155 33.1255 113.652 34.6843 112.501 36.7343C111.35 38.7843 110.774 41.2136 110.774 44.0222C110.774 46.8305 111.35 49.2878 112.501 51.394C113.652 53.5004 115.169 55.1153 117.051 56.2387C118.932 57.3618 120.94 57.9236 123.074 57.9236C125.265 57.9236 127.315 57.3759 129.225 56.2806C131.134 55.1853 132.651 53.6127 133.774 51.5626C134.898 49.5123 135.459 47.0553 135.459 44.1906Z" fill="#DE1275"/>
<path fill-rule="evenodd" clip-rule="evenodd" d="M184.752 20.1787C190.312 20.1787 194.806 21.9339 198.232 25.4446C201.658 28.955 203.371 33.8556 203.371 40.1465V67.528H191.576V41.7472C191.576 38.0401 190.649 35.1895 188.796 33.1956C186.942 31.2018 184.415 30.2048 181.213 30.2048C177.956 30.2048 175.386 31.2018 173.504 33.1956C171.623 35.1895 170.682 38.0401 170.682 41.7472V67.528H158.887V20.8527H170.682V26.666C172.255 24.6441 174.263 23.0573 176.706 21.9058C179.149 20.7544 181.831 20.1787 184.752 20.1787Z" fill="#DE1275"/>
<path fill-rule="evenodd" clip-rule="evenodd" d="M211.549 44.0198C211.549 39.3014 212.49 35.1165 214.371 31.4657C216.253 27.8143 218.823 25.0056 222.081 23.0396C225.339 21.0737 228.962 20.0904 232.951 20.0904C235.984 20.0904 238.877 20.7504 241.629 22.0704C244.381 23.3904 246.572 25.1461 248.201 27.337V11.9675L260.166 0.93692V67.5281H248.201V60.6188C246.741 62.9221 244.691 64.7756 242.05 66.1799C239.41 67.5843 236.349 68.2865 232.866 68.2865C228.934 68.2865 225.339 67.2751 222.081 65.2529C218.823 63.2307 216.253 60.3799 214.371 56.701C212.49 53.0215 211.549 48.7944 211.549 44.0198ZM260.08 0.932617H260.166V0.93692L260.08 0.932617ZM248.285 44.1884C248.285 41.3235 247.724 38.8662 246.6 36.816C245.477 34.7657 243.96 33.1927 242.05 32.0976C240.14 31.0018 238.09 30.4543 235.899 30.4543C233.709 30.4543 231.687 30.9878 229.833 32.0554C227.979 33.1224 226.476 34.6813 225.325 36.7316C224.174 38.7819 223.598 41.2111 223.598 44.0198C223.598 46.8284 224.174 49.2863 225.325 51.3928C226.476 53.4987 227.993 55.1139 229.875 56.2371C231.756 57.361 233.765 57.9226 235.899 57.9226C238.09 57.9226 240.14 57.375 242.05 56.2793C243.96 55.1842 245.477 53.6112 246.6 51.5609C247.724 49.5106 248.285 47.0533 248.285 44.1884Z" fill="#DE1275"/>
<path fill-rule="evenodd" clip-rule="evenodd" d="M268.676 44.0222C268.676 39.3039 269.617 35.1194 271.499 31.4687C273.381 27.8177 275.936 25.0094 279.166 23.0436C282.396 21.0777 286.004 20.0947 289.992 20.0947C293.474 20.0947 296.522 20.7968 299.133 22.2011C301.745 23.6051 303.837 25.3745 305.41 27.509V20.8529H317.289V67.5282H305.41V60.7038C303.893 62.8944 301.801 64.7058 299.133 66.1381C296.465 67.5705 293.39 68.2865 289.908 68.2865C285.976 68.2865 282.396 67.2754 279.166 65.2534C275.936 63.2315 273.381 60.3809 271.499 56.7019C269.617 53.0231 268.676 48.7963 268.676 44.0222ZM305.41 44.1906C305.41 41.3262 304.848 38.8688 303.725 36.8185C302.602 34.7685 301.085 33.1958 299.176 32.1005C297.266 31.0052 295.216 30.4576 293.025 30.4576C290.835 30.4576 288.813 30.9913 286.959 32.0583C285.106 33.1255 283.603 34.6843 282.452 36.7343C281.3 38.7843 280.724 41.2136 280.724 44.0222C280.724 46.8305 281.3 49.2878 282.452 51.394C283.603 53.5004 285.12 55.1153 287.001 56.2387C288.883 57.3618 290.891 57.9236 293.025 57.9236C295.216 57.9236 297.266 57.3759 299.176 56.2806C301.085 55.1853 302.602 53.6127 303.725 51.5626C304.848 49.5123 305.41 47.0553 305.41 44.1906Z" fill="#DE1275"/>
<path fill-rule="evenodd" clip-rule="evenodd" d="M373.494 20.8501L342.991 93.3867L335.541 80.8797L342.15 66.3488L323.445 20.8501H336.673L348.723 53.4579L360.939 20.8501H373.494Z" fill="#DE1275"/>
<path fill-rule="evenodd" clip-rule="evenodd" d="M55.3155 25.9655H44.5253V10.939C48.6935 13.0963 53.9918 18.5968 55.3155 25.9655Z" fill="#944B9D"/>
<path fill-rule="evenodd" clip-rule="evenodd" d="M328.889 94.9151H339.821L333.56 83.9326L328.889 94.9151Z" fill="#944B9D"/>
</svg>
