<svg width="60" height="33" viewBox="0 0 60 33" fill="none" xmlns="http://www.w3.org/2000/svg">
<path d="M44.2281 18.584H45.7693V17.397H43.041V21.7994H44.2281V18.584Z" fill="#323c47"/>
<path d="M44.2281 24.8617H45.7693V23.6753H43.041V28.0777H44.2281V24.8617Z" fill="#323c47"/>
<path d="M49.1246 18.584H50.6645V17.397H47.9375V21.7994H49.1246V18.584Z" fill="#323c47"/>
<path d="M49.1246 24.8617H50.6645V23.6753H47.9375V28.0777H49.1246V24.8617Z" fill="#323c47"/>
<path d="M54.0207 18.584H55.562V17.397H52.833V21.7994H54.0207V18.584Z" fill="#323c47"/>
<path d="M54.0207 24.8617H55.562V23.6753H52.833V28.0777H54.0207V24.8617Z" fill="#323c47"/>
<path d="M36.2988 21.7994H37.4859V18.584H39.0272V17.397H36.2988V21.7994Z" fill="#323c47"/>
<path d="M36.2988 28.0777H37.4859V24.8617H39.0272V23.6753H36.2988V28.0777Z" fill="#323c47"/>
<path d="M28.4717 21.7994H29.6587V18.584H31.2V17.397H28.4717V21.7994Z" fill="#323c47"/>
<path d="M28.4717 28.0777H29.6587V24.8617H31.2V23.6753H28.4717V28.0777Z" fill="#323c47"/>
<path d="M21.0225 21.7994H22.2095V18.584H23.7508V17.397H21.0225V21.7994Z" fill="#323c47"/>
<path d="M21.0225 28.0777H22.2095V24.8617H23.7508V23.6753H21.0225V28.0777Z" fill="#323c47"/>
<path d="M3.7793 21.7994H4.96636V18.584H6.50698V17.397H3.7793V21.7994Z" fill="#323c47"/>
<path d="M3.7793 28.0777H4.96636V24.8617H6.50698V23.6753H3.7793V28.0777Z" fill="#323c47"/>
<path d="M8.67578 21.7994H9.86284V18.584H11.4041V17.397H8.67578V21.7994Z" fill="#323c47"/>
<path d="M8.67578 28.0777H9.86284V24.8617H11.4041V23.6753H8.67578V28.0777Z" fill="#323c47"/>
<path d="M13.5713 21.7994H14.7584V18.584H16.2996V17.397H13.5713V21.7994Z" fill="#323c47"/>
<path d="M13.5713 28.0777H14.7584V24.8617H16.2996V23.6753H13.5713V28.0777Z" fill="#323c47"/>
<path d="M59.4058 13.4158H58.4639V10.8209H43.6615L44.5226 10.056L30.6487 4.70077V3.29619H34.1875V0H29.4617V0.00513288V3.29619V4.72901L15.6628 10.056L16.5233 10.8209H1.46811V13.4158H0.593532C0.266287 13.4158 0 13.6814 0 14.0093C0 14.3372 0.266287 14.6028 0.593532 14.6028H1.46811V16.3417V30.4248H18.1242V30.9593H16.9808V32.1463H20.4554V30.9593H19.3113V30.4248H25.6399V31.0215H24.4965V32.2086H27.9704V31.0215H26.827V30.4248H33.1557V31.0215H32.0122V32.2086H35.4862V31.0215H34.3427V30.4248H40.6701V31.0215H39.5273V32.2086H43.0019V31.0215H41.8578V30.4248H58.4639V16.3411V14.6022H59.4058C59.7344 14.6022 60 14.3365 60 14.0086C60 13.6808 59.7344 13.4158 59.4058 13.4158ZM32.9997 2.10784H30.6487V1.18578H32.9997V2.10784ZM30.0918 5.75758L42.2781 10.4609L41.9611 10.7426H18.223L17.9054 10.4609L30.0918 5.75758ZM57.2775 13.4158H55.8908V12.008H57.2775V13.4158ZM18.4605 14.0856V12.0721H41.467V14.0856H18.4605ZM5.31163 13.4158V12.008H6.76691V13.4158H5.31163ZM7.95397 12.0073H9.3977V13.4151H7.95397V12.0073ZM10.5848 12.0073H12.0285V13.4151H10.5848V12.0073ZM13.2156 12.0073H14.6593V13.4151H13.2156V12.0073ZM15.8463 12.0073H17.2734V13.4151H15.8463V12.0073ZM42.6541 12.0073H44.1691V13.4151H42.6541V12.0073ZM45.3568 12.0073H46.8114V13.4151H45.3561V12.0073H45.3568ZM47.9991 12.0073H49.4422V13.4151H47.9991V12.0073ZM50.6286 12.0073H52.073V13.4151H50.6286V12.0073ZM53.26 12.0073H54.7038V13.4151H53.26V12.0073ZM4.12457 12.0073V13.4151H2.65517V12.0073H4.12457ZM2.65517 29.2377V14.6022H17.2734V15.1469H16.9808V16.334H18.1242V29.2377H2.65517ZM19.3113 29.2377V16.334H20.4554V15.274H24.4965V16.334H25.6399V29.2377H19.3113ZM26.827 29.2377V16.334H27.9704V15.274H32.0122V16.334H33.1557V29.2377H26.827ZM34.3427 29.2377V16.334H35.4862V15.274H39.5273V16.334H40.6701V29.2377H34.3427ZM57.2775 29.2377H41.8572V16.334H43.0012V15.1469H42.6535V14.6022H57.2768V29.2377H57.2775Z" fill="#323c47"/>
</svg>
